<svg xmlns="http://www.w3.org/2000/svg" viewBox="0 0 128 128" role="img" aria-label="ClawStack favicon">
  <defs>
    <linearGradient id="accent" x1="0%" y1="0%" x2="100%" y2="100%">
      <stop offset="0%" stop-color="#f26a21" />
      <stop offset="100%" stop-color="#ff9e5c" />
    </linearGradient>
  </defs>
  <rect width="128" height="128" rx="30" fill="#16212c" />
  <path
    d="M84 24c-9 3-18 13-19 25 8-3 16-4 24-1-1 8-7 14-16 19l-11 5c-9 4-14 11-14 20 0 10 8 18 20 18 19 0 32-15 32-35 0-11-4-22-16-30 6-8 9-15 10-21-3-1-6-1-10 0z"
    fill="url(#accent)"
  />
  <circle cx="51" cy="88" r="7" fill="#fff6ed" />
</svg>
